<svg width="32" height="32" viewBox="0 0 32 32" fill="none" xmlns="http://www.w3.org/2000/svg">
<path d="M23.2666 30.3332C21.76 30.3332 20.1733 29.9732 18.5333 29.2798C16.9333 28.5998 15.32 27.6665 13.7466 26.5332C12.1866 25.3865 10.68 24.1065 9.25329 22.7065C7.83996 21.2798 6.55996 19.7732 5.42663 18.2265C4.27996 16.6265 3.35996 15.0265 2.70663 13.4798C2.01329 11.8265 1.66663 10.2265 1.66663 8.71984C1.66663 7.67984 1.85329 6.69317 2.21329 5.77317C2.58663 4.8265 3.18663 3.9465 3.99996 3.1865C5.02663 2.17317 6.19996 1.6665 7.45329 1.6665C7.97329 1.6665 8.50663 1.7865 8.95996 1.99984C9.47996 2.23984 9.91996 2.59984 10.24 3.07984L13.3333 7.43984C13.6133 7.8265 13.8266 8.19984 13.9733 8.57317C14.1466 8.97317 14.24 9.37317 14.24 9.75984C14.24 10.2665 14.0933 10.7598 13.8133 11.2265C13.6133 11.5865 13.3066 11.9732 12.92 12.3598L12.0133 13.3065C12.0266 13.3465 12.04 13.3732 12.0533 13.3998C12.2133 13.6798 12.5333 14.1598 13.1466 14.8798C13.8 15.6265 14.4133 16.3065 15.0266 16.9332C15.8133 17.7065 16.4666 18.3198 17.08 18.8265C17.84 19.4665 18.3333 19.7865 18.6266 19.9332L18.6 19.9998L19.5733 19.0398C19.9866 18.6265 20.3866 18.3198 20.7733 18.1198C21.5066 17.6665 22.44 17.5865 23.3733 17.9732C23.72 18.1198 24.0933 18.3198 24.4933 18.5998L28.92 21.7465C29.4133 22.0798 29.7733 22.5065 29.9866 23.0132C30.1866 23.5198 30.28 23.9865 30.28 24.4532C30.28 25.0932 30.1333 25.7332 29.8533 26.3332C29.5733 26.9332 29.2266 27.4532 28.7866 27.9332C28.0266 28.7732 27.2 29.3732 26.24 29.7598C25.32 30.1332 24.32 30.3332 23.2666 30.3332ZM7.45329 3.6665C6.71996 3.6665 6.03996 3.9865 5.38663 4.6265C4.77329 5.19984 4.34663 5.8265 4.07996 6.5065C3.79996 7.19984 3.66663 7.93317 3.66663 8.71984C3.66663 9.95984 3.95996 11.3065 4.54663 12.6932C5.14663 14.1065 5.98663 15.5732 7.05329 17.0398C8.11996 18.5065 9.33329 19.9332 10.6666 21.2798C12 22.5998 13.44 23.8265 14.92 24.9065C16.36 25.9598 17.84 26.8132 19.3066 27.4265C21.5866 28.3998 23.72 28.6265 25.48 27.8932C26.16 27.6132 26.76 27.1865 27.3066 26.5732C27.6133 26.2398 27.8533 25.8798 28.0533 25.4532C28.2133 25.1198 28.2933 24.7732 28.2933 24.4265C28.2933 24.2132 28.2533 23.9998 28.1466 23.7598C28.1066 23.6798 28.0266 23.5332 27.7733 23.3598L23.3466 20.2132C23.08 20.0265 22.84 19.8932 22.6133 19.7998C22.32 19.6798 22.2 19.5598 21.7466 19.8398C21.48 19.9732 21.24 20.1732 20.9733 20.4398L19.96 21.4398C19.44 21.9465 18.64 22.0665 18.0266 21.8398L17.6666 21.6798C17.12 21.3865 16.48 20.9332 15.7733 20.3332C15.1333 19.7865 14.44 19.1465 13.6 18.3198C12.9466 17.6532 12.2933 16.9465 11.6133 16.1598C10.9866 15.4265 10.5333 14.7998 10.2533 14.2798L10.0933 13.8798C10.0133 13.5732 9.98663 13.3998 9.98663 13.2132C9.98663 12.7332 10.16 12.3065 10.4933 11.9732L11.4933 10.9332C11.76 10.6665 11.96 10.4132 12.0933 10.1865C12.2 10.0132 12.24 9.8665 12.24 9.73317C12.24 9.6265 12.2 9.4665 12.1333 9.3065C12.04 9.09317 11.8933 8.85317 11.7066 8.59984L8.61329 4.2265C8.47996 4.03984 8.31996 3.9065 8.11996 3.81317C7.90663 3.71984 7.67996 3.6665 7.45329 3.6665ZM18.6 20.0132L18.3866 20.9198L18.7466 19.9865C18.68 19.9732 18.6266 19.9865 18.6 20.0132Z" fill="white"/>
<path d="M26.6666 12.7335C26.1199 12.7335 25.6666 12.2802 25.6666 11.7335V6.3335H20.2666C19.7199 6.3335 19.2666 5.88016 19.2666 5.3335C19.2666 4.78683 19.7199 4.3335 20.2666 4.3335H26.6666C27.2133 4.3335 27.6666 4.78683 27.6666 5.3335V11.7335C27.6666 12.2802 27.2133 12.7335 26.6666 12.7335Z" fill="white"/>
</svg>
