<svg width="24" height="24" viewBox="0 0 24 24" fill="none" xmlns="http://www.w3.org/2000/svg">
<path d="M2 1.75H3.74023C4.32535 1.75006 4.8803 1.99821 5.27734 2.4248H5.27832C5.50044 2.67166 5.66122 2.95434 5.74902 3.26562L5.85156 3.62988H18.7197C19.5392 3.62988 20.2919 3.93289 20.8643 4.48047L20.9766 4.59375C21.5512 5.22274 21.8401 6.03428 21.7715 6.90039V6.9043L21.2314 14.4043L21.2305 14.4102C21.1365 15.9712 19.7605 17.2498 18.1904 17.25H7.54004C6.69104 17.25 5.87474 16.8891 5.29883 16.2617C4.72254 15.6338 4.42969 14.7913 4.49805 13.9414L5.32715 3.9873L5.32812 3.98828C5.37284 3.52625 5.2067 3.08855 4.90918 2.7627C4.59894 2.42298 4.17218 2.25012 3.73047 2.25H2C1.86614 2.25 1.75 2.13386 1.75 2C1.75 1.86614 1.86614 1.75 2 1.75ZM5.78027 4.58789L5.00195 13.9766C4.9398 14.6976 5.17757 15.3849 5.65918 15.916C6.14759 16.4545 6.82446 16.7402 7.54004 16.7402H18.1904C19.495 16.74 20.6483 15.6552 20.748 14.3584L20.749 14.3555L21.2891 6.85547V6.85352C21.3377 6.13481 21.105 5.43406 20.6113 4.91504C20.1235 4.39257 19.4515 4.11047 18.7305 4.11035H5.78027V4.58789Z" fill="#101840" stroke="#101840"/>
<path d="M16.25 22.75C15.15 22.75 14.25 21.85 14.25 20.75C14.25 19.65 15.15 18.75 16.25 18.75C17.35 18.75 18.25 19.65 18.25 20.75C18.25 21.85 17.35 22.75 16.25 22.75ZM16.25 20.25C15.97 20.25 15.75 20.47 15.75 20.75C15.75 21.03 15.97 21.25 16.25 21.25C16.53 21.25 16.75 21.03 16.75 20.75C16.75 20.47 16.53 20.25 16.25 20.25Z" fill="#101840"/>
<path d="M8.25 22.75C7.15 22.75 6.25 21.85 6.25 20.75C6.25 19.65 7.15 18.75 8.25 18.75C9.35 18.75 10.25 19.65 10.25 20.75C10.25 21.85 9.35 22.75 8.25 22.75ZM8.25 20.25C7.97 20.25 7.75 20.47 7.75 20.75C7.75 21.03 7.97 21.25 8.25 21.25C8.53 21.25 8.75 21.03 8.75 20.75C8.75 20.47 8.53 20.25 8.25 20.25Z" fill="#101840"/>
<path d="M21 8.75H9C8.59 8.75 8.25 8.41 8.25 8C8.25 7.59 8.59 7.25 9 7.25H21C21.41 7.25 21.75 7.59 21.75 8C21.75 8.41 21.41 8.75 21 8.75Z" fill="#101840"/>
</svg>
