<svg width="50" height="50" viewBox="0 0 50 50" fill="none" xmlns="http://www.w3.org/2000/svg">
<path d="M38.9992 9.00049H40.9992V11.0005C40.9992 11.2657 41.1045 11.5201 41.292 11.7076C41.4796 11.8951 41.7339 12.0005 41.9992 12.0005H45.999C46.2642 12.0005 46.5186 11.8951 46.7061 11.7076C46.8937 11.5201 46.999 11.2657 46.999 11.0005V9.00049H48.999C49.2642 9.00049 49.5186 8.89513 49.7061 8.70759C49.8937 8.52006 49.999 8.26571 49.999 8.00049V4.00049C49.999 3.73527 49.8937 3.48092 49.7061 3.29338C49.5186 3.10585 49.2642 3.00049 48.999 3.00049H46.999V1.00049C46.999 0.735272 46.8937 0.480918 46.7061 0.293382C46.5186 0.105845 46.2642 0.000488281 45.999 0.000488281H41.9992C41.7339 0.000488281 41.4796 0.105845 41.292 0.293382C41.1045 0.480918 40.9992 0.735272 40.9992 1.00049V3.00049H38.9992C38.734 3.00049 38.4796 3.10585 38.2921 3.29338C38.1046 3.48092 37.9992 3.73527 37.9992 4.00049V8.00049C37.9992 8.26571 38.1046 8.52006 38.2921 8.70759C38.4796 8.89513 38.734 9.00049 38.9992 9.00049ZM39.9992 5.00049H41.9992C42.2644 5.00047 42.5187 4.8951 42.7062 4.70757C42.8937 4.52004 42.9991 4.26569 42.9991 4.00049V2.00049H44.9991V4.00049C44.9991 4.26569 45.1044 4.52004 45.292 4.70757C45.4795 4.89511 45.7338 5.00047 45.999 5.00049H47.999V7.00049H45.999C45.7338 7.0005 45.4795 7.10587 45.292 7.2934C45.1044 7.48094 44.9991 7.73528 44.9991 8.00049V10.0005H42.9991V8.00049C42.9991 7.73528 42.8937 7.48094 42.7062 7.29341C42.5187 7.10587 42.2644 7.00051 41.9992 7.00049H39.9992V5.00049ZM13.9997 26.0005C12.0219 26.0005 10.0885 26.5869 8.44394 27.6857C6.79943 28.7845 5.51768 30.3463 4.76077 32.1735C4.00387 34.0008 3.80581 36.0115 4.19164 37.9513C4.57747 39.8911 5.52987 41.6729 6.92838 43.0715C8.3269 44.47 10.1087 45.4225 12.0485 45.8083C13.9884 46.1942 15.999 45.9962 17.8263 45.2393C19.6536 44.4824 21.2154 43.2007 22.3142 41.5562C23.413 39.9117 23.9995 37.9783 23.9995 36.0005C23.9966 33.3492 22.9421 30.8074 21.0674 28.9327C19.1927 27.058 16.6509 26.0034 13.9997 26.0005ZM13.9997 44.0005C12.4174 44.0005 10.8707 43.5313 9.5551 42.6523C8.23949 41.7733 7.21409 40.5238 6.60857 39.062C6.00306 37.6002 5.84461 35.9917 6.15328 34.4398C6.46195 32.888 7.22386 31.4625 8.34268 30.3437C9.46149 29.2248 10.887 28.4629 12.4388 28.1542C13.9907 27.8455 15.5992 28.0039 17.061 28.6094C18.5228 29.2149 19.7723 30.2403 20.6513 31.5559C21.5304 32.8715 21.9996 34.4182 21.9996 36.0005C21.9972 38.1215 21.1536 40.1549 19.6538 41.6546C18.1541 43.1544 16.1207 43.9981 13.9997 44.0005Z" fill="#897AE3"/>
<path d="M13.9997 32.0005C13.2086 32.0005 12.4352 32.2351 11.7774 32.6746C11.1196 33.1141 10.6069 33.7388 10.3041 34.4697C10.0014 35.2006 9.92215 36.0049 10.0765 36.7808C10.2308 37.5567 10.6118 38.2695 11.1712 38.8289C11.7306 39.3883 12.4433 39.7693 13.2193 39.9236C13.9952 40.078 14.7994 39.9988 15.5304 39.696C16.2613 39.3933 16.886 38.8806 17.3255 38.2228C17.765 37.565 17.9996 36.7916 17.9996 36.0005C17.9984 34.94 17.5766 33.9233 16.8268 33.1734C16.0769 32.4235 15.0602 32.0017 13.9997 32.0005ZM11.9998 36.0005C11.9998 35.6049 12.1171 35.2182 12.3368 34.8893C12.5566 34.5604 12.869 34.3041 13.2344 34.1527C13.5999 34.0013 14.002 33.9617 14.39 34.0389C14.7779 34.1161 15.1343 34.3066 15.414 34.5863C15.6937 34.866 15.8842 35.2224 15.9613 35.6104C16.0385 35.9983 15.9989 36.4005 15.8475 36.7659C15.6961 37.1314 15.4398 37.4437 15.1109 37.6635C14.7819 37.8832 14.3953 38.0005 13.9997 38.0005C13.4694 37.9999 12.9611 37.789 12.5861 37.4141C12.2112 37.0391 12.0003 36.5307 11.9998 36.0005ZM32.9993 44.0005C32.8015 44.0005 32.6082 44.0591 32.4438 44.169C32.2793 44.2789 32.1511 44.435 32.0754 44.6178C31.9997 44.8005 31.9799 45.0016 32.0185 45.1955C32.0571 45.3895 32.1523 45.5677 32.2921 45.7076C32.432 45.8474 32.6102 45.9427 32.8042 45.9813C32.9981 46.0199 33.1992 46.0001 33.3819 45.9244C33.5647 45.8487 33.7209 45.7205 33.8307 45.5561C33.9406 45.3916 33.9993 45.1983 33.9993 45.0005C33.9993 44.7353 33.8939 44.4809 33.7064 44.2934C33.5189 44.1059 33.2645 44.0005 32.9993 44.0005Z" fill="#897AE3"/>
<path d="M49.4951 35.3374C49.2767 35.0095 48.9959 34.7278 48.6685 34.5085C48.3412 34.2892 47.9739 34.1365 47.5876 34.0592C47.2012 33.982 46.8034 33.9816 46.4169 34.0582C46.0304 34.1347 45.6628 34.2867 45.3351 34.5054L39.3521 38.4936L36.9993 29.8662V27.0005C36.9981 25.94 36.5763 24.9233 35.8264 24.1734C35.0766 23.4235 34.0599 23.0017 32.9994 23.0005H31.9994V16.0005C31.9985 15.2051 31.6822 14.4426 31.1198 13.8801C30.5574 13.3177 29.7948 13.0014 28.9995 13.0005H13.2576L10.9305 2.35938C10.7814 1.69232 10.4103 1.09563 9.87793 0.667005C9.34553 0.238376 8.68338 0.00320588 7.99988 0H3C2.20435 0 1.44129 0.316071 0.87868 0.87868C0.316071 1.44129 0 2.20435 0 3C0 3.79565 0.316071 4.55871 0.87868 5.12132C1.44129 5.68393 2.20435 6 3 6H5.58539L9.26916 22.8408C6.8581 23.7083 4.73153 25.2211 3.12137 27.2144C1.5112 29.2077 0.479266 31.6048 0.138098 34.1443C-0.20307 36.6839 0.159631 39.2684 1.18664 41.6159C2.21366 43.9635 3.86555 45.984 5.96217 47.457C8.0588 48.9301 10.5196 49.7992 13.0763 49.9695C15.6331 50.1398 18.1874 49.6049 20.4609 48.4229C22.7344 47.241 24.6398 45.4575 25.9691 43.267C27.2985 41.0764 28.0008 38.5629 27.9995 36.0005C27.9995 35.663 27.9725 35.3322 27.9489 35.0005H30.9995C31.3409 34.9971 31.6792 34.9348 31.9994 34.8162V40.1016C30.7854 40.3494 29.7066 41.0391 28.9722 42.0371C28.2379 43.0351 27.9002 44.2702 28.0248 45.503C28.1493 46.7358 28.7271 47.8784 29.6463 48.7093C30.5654 49.5403 31.7603 50.0004 32.9994 50.0004C34.2384 50.0004 35.4333 49.5403 36.3525 48.7093C37.2716 47.8784 37.8494 46.7358 37.974 45.503C38.0985 44.2702 37.7608 43.0351 37.0265 42.0371C36.2921 41.0391 35.2134 40.3494 33.9993 40.1016V31.0005H35.2354L38.0176 41.2022C38.0514 41.7263 38.2226 42.2323 38.514 42.6693C38.8054 43.1062 39.2068 43.4587 39.6777 43.6913C40.1486 43.9239 40.6724 44.0283 41.1965 43.9941C41.7206 43.96 42.2265 43.7884 42.6632 43.4966L48.6631 39.4971C48.9909 39.2786 49.2725 38.9977 49.4917 38.6705C49.711 38.3432 49.8636 37.9759 49.9408 37.5896C50.0181 37.2033 50.0185 36.8056 49.942 36.4192C49.8655 36.0327 49.7137 35.6651 49.4951 35.3374ZM47.5538 37.833L41.5534 41.833C41.3308 41.9735 41.0628 42.023 40.8047 41.9713C40.5467 41.9196 40.3184 41.7706 40.1672 41.5552C40.0201 41.3346 39.9667 41.0646 40.0188 40.8046C40.0708 40.5447 40.2239 40.316 40.4445 40.169L46.4454 36.169C46.5546 36.0961 46.6771 36.0455 46.8058 36.02C46.9346 35.9945 47.0671 35.9947 47.1959 36.0205C47.3246 36.0463 47.4469 36.0972 47.5559 36.1704C47.6649 36.2435 47.7584 36.3375 47.8311 36.4468C47.9778 36.6675 48.031 36.9374 47.979 37.1972C47.927 37.4571 47.7741 37.6857 47.5538 37.833ZM31.9994 32.0005C31.999 32.2656 31.8936 32.5197 31.7061 32.7072C31.5187 32.8947 31.2646 33.0001 30.9995 33.0005H27.6677C27.5159 32.3195 27.313 31.6509 27.0606 31.0005H31.9994V32.0005ZM25.9995 36.0005C25.9995 38.3738 25.2956 40.6938 23.9771 42.6671C22.6585 44.6404 20.7844 46.1784 18.5917 47.0866C16.399 47.9948 13.9863 48.2324 11.6586 47.7693C9.33089 47.3063 7.19277 46.1634 5.5146 44.4852C3.83644 42.807 2.6936 40.6689 2.23061 38.3412C1.76761 36.0135 2.00526 33.6007 2.91349 31.4081C3.82173 29.2154 5.35976 27.3413 7.33309 26.0228C9.30643 24.7043 11.6264 24.0005 13.9997 24.0005C17.1812 24.0042 20.2313 25.2696 22.4809 27.5193C24.7305 29.7689 25.9959 32.819 25.9995 36.0005ZM6.39006 4H3C2.73478 4 2.48043 3.89464 2.29289 3.70711C2.10536 3.51957 2 3.26522 2 3C2 2.73478 2.10536 2.48043 2.29289 2.29289C2.48043 2.10536 2.73478 2 3 2H7.99988C8.2277 2.00108 8.4484 2.0795 8.62582 2.22241C8.80324 2.36532 8.92687 2.56426 8.97644 2.78662L11.4759 14.2144C11.5247 14.4371 11.6483 14.6365 11.826 14.7795C12.0037 14.9225 12.2249 15.0005 12.4529 15.0005H28.9995C29.2647 15.0005 29.519 15.1058 29.7066 15.2934C29.8941 15.4809 29.9995 15.7353 29.9995 16.0005C29.9995 16.2657 29.8941 16.5201 29.7066 16.7076C29.519 16.8951 29.2647 17.0005 28.9995 17.0005H13.3279C13.1785 17.0006 13.0309 17.0341 12.8961 17.0987C12.7613 17.1633 12.6427 17.2572 12.549 17.3737C12.4553 17.4901 12.3889 17.6261 12.3546 17.7715C12.3203 17.917 12.319 18.0683 12.3509 18.2144L13.1882 22.0416C12.5187 22.0744 11.8525 22.1552 11.1947 22.2835L7.36713 4.78613C7.31827 4.56335 7.19476 4.36395 7.01706 4.22097C6.83936 4.078 6.61814 4.00003 6.39006 4ZM19.166 23.0005C17.91 22.4984 16.5874 22.1827 15.2402 22.0633L14.5701 19.0005H28.9995C29.3409 18.9971 29.6792 18.9347 29.9995 18.8162V23.0005H19.166ZM26.1054 29.0005C25.2108 27.4594 24.032 26.1021 22.6314 25.0005H32.9994C33.5297 25.001 34.0381 25.2119 34.413 25.5869C34.7879 25.9618 34.9988 26.4702 34.9994 27.0005V29.0005H26.1054ZM32.9994 48.0005C32.406 48.0005 31.826 47.8246 31.3326 47.4949C30.8393 47.1653 30.4547 46.6968 30.2277 46.1486C30.0006 45.6004 29.9412 44.9972 30.0569 44.4153C30.1727 43.8333 30.4584 43.2988 30.8779 42.8792C31.2975 42.4596 31.8321 42.1739 32.414 42.0581C32.9959 41.9424 33.5991 42.0018 34.1473 42.2288C34.6955 42.4559 35.164 42.8404 35.4937 43.3338C35.8233 43.8271 35.9993 44.4071 35.9993 45.0005C35.9984 45.7959 35.6821 46.5584 35.1197 47.1208C34.5573 47.6833 33.7947 47.9996 32.9994 48.0005Z" fill="#897AE3"/>
</svg>
