<svg width="47" height="54" viewBox="0 0 47 54" fill="none" xmlns="http://www.w3.org/2000/svg">
<path d="M46.5587 43.9903L44.7008 34.8114C44.7008 34.8101 44.7002 34.8095 44.7002 34.8082L42.8429 25.6325C42.4506 23.6927 41.3536 22.0159 39.753 20.8715C40.2752 20.1131 40.5824 19.1954 40.5824 18.2066C40.5824 15.8923 38.9043 13.9666 36.7021 13.5704L32.5114 6.31282C32.8378 5.41362 32.8851 4.4389 32.6323 3.49554C32.3066 2.27954 31.5258 1.26258 30.4358 0.633459C29.3459 0.00369919 28.0755 -0.163341 26.8589 0.163059C25.8419 0.435699 24.969 1.02834 24.3405 1.85138H16.2406C14.8243 0.00113907 12.2163 -0.562701 10.1453 0.633459C9.05536 1.26258 8.2752 2.27954 7.94944 3.49554C7.69664 4.4389 7.74336 5.41298 8.06976 6.31218L3.87968 13.5711C1.67744 13.9666 0 15.8923 0 18.2066C0 20.3531 1.44384 22.165 3.40992 22.7327L7.93088 30.5631C7.43936 32.5496 8.28672 34.7064 10.1459 35.7797C10.8864 36.2072 11.696 36.4101 12.4947 36.4101C13.6134 36.4101 14.7072 36.0037 15.568 35.2651H17.4611V43.0367H13.9002C13.3344 43.0367 12.8755 43.4955 12.8755 44.0613V47.6735C12.8755 48.2392 13.3344 48.6981 13.9002 48.6981H17.4611V52.2591C17.4611 52.8248 17.92 53.2831 18.4858 53.2831H22.0979C22.6637 53.2831 23.1226 52.8242 23.1226 52.2591V48.6981H26.6835C27.2493 48.6981 27.7075 48.2392 27.7075 47.6735V44.0613C27.7075 43.4955 27.2486 43.0367 26.6835 43.0367H23.1226V35.2651H25.0048C25.5354 35.7234 26.1632 36.0639 26.8608 36.2507C27.2672 36.3589 27.6794 36.4133 28.0883 36.4133C28.4589 36.4133 28.8256 36.3634 29.1853 36.2757L29.511 37.8834C29.511 37.884 29.511 37.8847 29.511 37.8853L31.369 47.0642C32.1126 50.7384 35.3523 53.2824 38.9613 53.2824C39.4682 53.2824 39.9827 53.2325 40.4979 53.1282C44.688 52.2795 47.4074 48.1803 46.5587 43.9903ZM33.3766 46.6584L31.7222 38.4831L42.8954 36.2219L44.5504 44.3967C45.1744 47.4795 43.1744 50.4959 40.0915 51.1199C37.017 51.7413 34.0013 49.7419 33.3766 46.6584ZM22.0973 33.2159C21.5315 33.2159 21.0726 33.6747 21.0726 34.2405V44.0613C21.0726 44.6271 21.5315 45.0859 22.0973 45.0859H25.6582V46.6488H22.0973C21.5315 46.6488 21.0726 47.1077 21.0726 47.6735V51.2344H19.5098V47.6735C19.5098 47.1077 19.0509 46.6488 18.4851 46.6488H14.9242V45.0859H18.4851C19.0509 45.0859 19.5098 44.6271 19.5098 44.0613V34.2405C19.5098 33.6747 19.0509 33.2159 18.4851 33.2159H16.9638C17.1379 32.7045 17.2154 32.1765 17.2096 31.6536H23.3722C23.3664 32.1771 23.4438 32.7051 23.6179 33.2159H22.0973ZM3.83104 15.7035C4.10816 15.605 4.40256 15.5416 4.71296 15.5416C4.84096 15.5416 4.96256 15.5615 5.08608 15.5794C5.62944 15.6562 6.11776 15.8936 6.50432 16.2469C6.78208 16.5016 7.0112 16.8075 7.1616 17.1583C7.29984 17.4802 7.37792 17.8341 7.37792 18.2059C7.37792 18.725 7.2224 19.2063 6.96448 19.6159C6.77248 19.9211 6.5248 20.1867 6.22912 20.3915C5.7984 20.6917 5.2768 20.8696 4.7136 20.8696C4.70912 20.8696 4.70528 20.8683 4.7008 20.8683C4.1728 20.8658 3.68256 20.7064 3.26912 20.4376C2.53696 19.9621 2.04928 19.141 2.04928 18.2053C2.04928 17.0482 2.7968 16.0696 3.83104 15.7035ZM23.4426 3.9013C23.3517 4.42226 23.3459 4.95026 23.4291 5.46354H17.1533C17.2365 4.95026 17.2307 4.42226 17.1398 3.9013H23.4426ZM28.7846 22.8824C27.9622 24.133 27.5302 25.5595 27.504 27.0175C26.8838 27.0936 26.2803 27.2933 25.7229 27.6152C24.8877 28.0971 24.2573 28.7986 23.8592 29.6037H16.7226C16.3245 28.7979 15.6941 28.0971 14.8589 27.6152C14.0864 27.1691 13.2384 26.9727 12.4051 26.9906L8.74048 20.6431C9.17312 19.9307 9.4272 19.0987 9.4272 18.2059C9.4272 17.4603 9.24864 16.757 8.93888 16.1298L12.8198 9.40786C13.5174 9.36178 14.215 9.16978 14.8595 8.7973C15.44 8.46194 15.92 8.02034 16.2938 7.51218H24.2893C24.663 8.02034 25.143 8.46258 25.7235 8.7973C26.3686 9.16978 27.0656 9.36178 27.7632 9.40786L31.6442 16.1298C31.335 16.7576 31.1558 17.4603 31.1558 18.2059C31.1558 18.9579 31.3376 19.6677 31.6525 20.2987C30.505 20.8971 29.5194 21.7746 28.7846 22.8824ZM38.5331 18.2066C38.5331 18.8511 38.2944 19.4341 37.9123 19.8949C37.8336 19.8661 37.7549 19.8373 37.6755 19.8111C37.3382 19.6991 36.9952 19.6069 36.647 19.5429C36.0768 19.4386 35.4938 19.404 34.9082 19.4309C34.8557 19.4335 34.8032 19.436 34.7507 19.4392C34.4787 19.4571 34.2067 19.4885 33.9347 19.5359C33.8586 19.5487 33.7818 19.5551 33.7056 19.5704C33.6813 19.5755 33.6582 19.5832 33.6339 19.589C33.625 19.5909 33.616 19.5935 33.6064 19.5954C33.513 19.4443 33.4362 19.2831 33.3747 19.1135C33.271 18.8287 33.2051 18.5259 33.2051 18.2059C33.2051 17.8341 33.2832 17.4802 33.4208 17.1583C33.5712 16.8075 33.8003 16.501 34.0781 16.2469C34.4646 15.893 34.953 15.6562 35.4963 15.5794C35.6192 15.5621 35.7414 15.5416 35.8694 15.5416C36.1798 15.5416 36.4736 15.605 36.7514 15.7035C37.785 16.0696 38.5331 17.0482 38.5331 18.2066ZM33.0374 14.4466L29.9206 9.04882C30.3994 8.84594 30.8435 8.5605 31.2371 8.20466L34.4224 13.7221C33.9181 13.8847 33.4522 14.1336 33.0374 14.4466ZM27.3901 2.14258C27.6198 2.08114 27.8528 2.05042 28.0845 2.05042C28.5459 2.05042 29.0016 2.17138 29.4118 2.40818C30.0282 2.76402 30.4691 3.3381 30.6528 4.0261C30.7584 4.41778 30.7629 4.81842 30.6893 5.20498C30.6342 5.49746 30.5395 5.7829 30.3866 6.04722C30.3226 6.15794 30.2445 6.2533 30.1677 6.35122C29.8291 6.78322 29.3805 7.08786 28.8806 7.24594C28.5216 7.35986 28.1421 7.40402 27.7626 7.35922C27.415 7.31826 27.0694 7.20882 26.7475 7.02258C26.5606 6.91506 26.3981 6.78322 26.2483 6.6405C26.1978 6.5925 26.1542 6.54002 26.1075 6.48818C25.8387 6.1893 25.6403 5.84114 25.529 5.46354C25.3818 4.96114 25.3792 4.41778 25.545 3.9013C25.6019 3.72466 25.6755 3.55122 25.7722 3.38354C25.881 3.19538 26.016 3.02962 26.1632 2.87602C26.496 2.5285 26.9126 2.27058 27.3901 2.14258ZM14.8096 3.38354C14.9062 3.55058 14.9798 3.72402 15.0368 3.9013C15.2032 4.41778 15.2006 4.96114 15.0528 5.46354C14.9421 5.84114 14.7437 6.1893 14.4749 6.48818C14.2918 6.69234 14.0845 6.87922 13.8349 7.02258C13.513 7.20882 13.168 7.31826 12.8198 7.35922C12.441 7.40402 12.0614 7.35922 11.7024 7.2453C11.2026 7.08786 10.7533 6.78258 10.4147 6.35122C10.3386 6.2533 10.2592 6.15794 10.1958 6.04722C10.0429 5.78226 9.94816 5.49682 9.89312 5.20498C9.82016 4.81778 9.82464 4.41778 9.9296 4.02546C10.1139 3.3381 10.5542 2.76338 11.1706 2.40754C12.2528 1.7829 13.5904 2.01266 14.4198 2.87538C14.5645 3.02834 14.6995 3.19346 14.8096 3.38354ZM9.34464 8.20402C9.73824 8.5605 10.1824 8.84594 10.6611 9.04882L7.54432 14.4466C7.1296 14.1336 6.66432 13.8847 6.15872 13.7221L9.34464 8.20402ZM7.25504 22.1701L10.3405 27.5141C9.87712 27.7528 9.45088 28.0703 9.08224 28.4594L5.80736 22.7871C6.32896 22.6623 6.81664 22.4523 7.25504 22.1701ZM11.1699 34.0043C10.359 33.5365 9.89184 32.7032 9.8464 31.8315C9.8208 31.3387 9.92704 30.8344 10.1894 30.3762C10.1914 30.3723 10.192 30.3685 10.1946 30.3647C10.4768 29.877 10.8934 29.516 11.3683 29.2933C11.6934 29.1403 12.0461 29.0539 12.4058 29.0405C12.4397 29.0392 12.473 29.0341 12.5069 29.0341C12.937 29.0341 13.3709 29.1416 13.7728 29.3599C13.7933 29.3714 13.8144 29.3791 13.8349 29.3906V29.3912C13.943 29.4533 14.0365 29.5307 14.1318 29.6056C14.4883 29.8827 14.7603 30.2341 14.9331 30.6303C15.0746 30.9535 15.1494 31.301 15.1558 31.6549C15.1642 32.1221 15.0598 32.5976 14.8096 33.0309C14.7706 33.0987 14.7194 33.1544 14.6752 33.2178C14.3226 33.7221 13.8266 34.0747 13.2691 34.2424C12.5888 34.4453 11.8317 34.3864 11.1699 34.0043ZM25.9059 33.2159C25.8624 33.1531 25.8112 33.0968 25.7722 33.029C25.5219 32.5957 25.4176 32.1202 25.4259 31.653C25.4323 31.2991 25.5072 30.9515 25.6486 30.6283C25.8221 30.2322 26.0934 29.8815 26.4499 29.6037C26.5459 29.5288 26.6387 29.4514 26.7469 29.3893C26.7674 29.3778 26.7885 29.3688 26.809 29.3579C27.097 29.2011 27.4054 29.0975 27.7222 29.0546L27.8374 29.6248L28.1446 31.1416L28.5549 33.1672L28.7597 34.1797L28.7757 34.2578C28.3264 34.3807 27.8522 34.3935 27.3894 34.2699C27.3619 34.2623 27.337 34.2482 27.3094 34.2399C26.7334 34.0664 26.2483 33.7074 25.9059 33.2159ZM30.7763 33.8111L30.5459 32.6719L30.4698 32.2936L30.1626 30.7762L29.9718 29.8347L29.6941 28.4632L29.6755 28.373L29.6614 28.3013C29.5891 27.9429 29.5533 27.5832 29.5494 27.2248C29.5469 27.0245 29.5533 26.8242 29.5718 26.6251C29.6589 25.7029 29.9712 24.8088 30.4954 24.0127C30.8877 23.4219 31.3792 22.9227 31.9405 22.5234C32.2682 22.2904 32.6182 22.0901 32.9907 21.9307C33.1866 21.8469 33.3869 21.7733 33.593 21.7112C33.7632 21.66 33.936 21.6152 34.1126 21.5794C34.1798 21.5659 34.2477 21.5602 34.3149 21.5487C34.7219 21.4815 35.129 21.4584 35.5315 21.4776C35.9002 21.4955 36.265 21.5493 36.6221 21.6376C36.736 21.6664 36.8499 21.6952 36.9619 21.7304C37.1814 21.8002 37.3958 21.8859 37.6064 21.9826C37.8093 22.0754 38.007 22.1803 38.2003 22.2981C38.2662 22.3384 38.3347 22.3736 38.3994 22.4165C39.6678 23.2587 40.5331 24.5445 40.8358 26.0383L42.4909 34.213L31.3171 36.4747L31.0842 35.324L30.8442 34.1381L30.7763 33.8111ZM31.1834 29.0072C30.951 28.8639 30.7744 28.6296 30.7162 28.3403C30.6835 28.1797 30.6611 27.973 30.6483 27.7458C30.6317 27.4514 30.6394 27.1141 30.6835 26.7487C30.7731 26.0114 31.0138 25.1794 31.5443 24.4357C31.8374 24.0242 32.1965 23.6869 32.6054 23.42C33.1174 23.0859 33.7094 22.8651 34.3706 22.7775C34.5062 22.7602 34.6394 22.7717 34.7654 22.8043C35.129 22.901 35.4189 23.1935 35.5021 23.5775C35.5078 23.6043 35.5174 23.6299 35.5213 23.6575C35.5878 24.1579 35.2806 24.62 34.8154 24.7672C34.759 24.7851 34.7014 24.8005 34.6406 24.8088C34.2086 24.8664 33.8579 25.0175 33.5699 25.2536C33.4387 25.3605 33.3171 25.4802 33.2134 25.6255C33.056 25.8463 32.9434 26.101 32.8595 26.3615C32.6714 26.949 32.6509 27.5711 32.7245 27.9346C32.7597 28.1087 32.7443 28.2802 32.695 28.4389C32.6483 28.5899 32.5702 28.7295 32.4614 28.8434C32.3424 28.9688 32.1894 29.061 32.0154 29.1135C31.9846 29.1224 31.9552 29.1352 31.9232 29.1423C31.8547 29.1563 31.7862 29.1627 31.719 29.1627C31.5258 29.1621 31.3421 29.1051 31.1834 29.0072ZM39.7958 49.932C39.7274 49.9455 39.6595 49.9525 39.5917 49.9525C39.1142 49.9525 38.6867 49.6171 38.5882 49.1307C38.4762 48.5765 38.8346 48.0357 39.3894 47.9237C39.7683 47.8469 40.1306 47.6831 40.4499 47.4456C41.0182 47.0232 41.447 46.3602 41.577 45.4975C41.6422 45.0635 41.6326 44.581 41.5258 44.053C41.4131 43.4981 41.7715 42.9573 42.327 42.8459C42.8838 42.732 43.4221 43.093 43.5341 43.6466C44.1472 46.6738 42.5395 49.3765 39.7958 49.932Z" fill="#897AE3"/>
</svg>
