<svg width="64" height="64" viewBox="0 0 64 64" fill="none" xmlns="http://www.w3.org/2000/svg">
<path d="M60.8149 34.3358C61.242 33.6586 61.4902 32.858 61.4902 32C61.4902 29.5782 59.5199 27.6078 57.098 27.6078H50.1961V20.4373L58.3939 15.7312C60.4676 14.5383 61.2345 11.861 60.0151 9.73616C58.8104 7.63558 56.1206 6.90698 54.0186 8.11269L44.5791 13.5325C42.6255 14.6541 41.4118 16.7507 41.4118 19.0036V23.8431H38.4828V20.4963C38.4828 16.5779 36.3422 13.2173 33.2307 11.427C34.2863 10.2144 34.9277 8.63222 34.9277 6.90196C34.9277 3.09622 31.8315 0 28.0257 0C24.22 0 21.1238 3.09622 21.1238 6.90196C21.1238 8.63071 21.7641 10.2118 22.818 11.4239C19.6119 13.2599 17.5686 16.6894 17.5686 20.4963V23.9694C16.0387 24.2811 14.7096 25.1514 13.8039 26.3572C12.6582 24.8318 10.8347 23.8431 8.78431 23.8431C5.32455 23.8431 2.5098 26.6579 2.5098 30.1176C2.5098 31.6165 3.03875 32.9939 3.91893 34.0742C1.66262 34.6957 0 36.7646 0 39.2157V42.3529C0 45.1884 2.22431 47.5132 5.01961 47.6762V59.6078C5.01961 62.0297 6.98993 64 9.41177 64C11.8336 64 13.8039 62.0297 13.8039 59.6078V47.6863H50.1961V59.6078C50.1961 62.0297 52.1664 64 54.5882 64C57.0101 64 58.9804 62.0297 58.9804 59.6078V47.6762C61.7757 47.5132 64 45.1883 64 42.3529V39.2157C64 37.0389 62.6886 35.1639 60.8149 34.3358ZM58.9804 32C58.9804 33.0379 58.136 33.8824 57.098 33.8824H48.0425C49.0138 32.8479 49.7118 31.5548 50.0194 30.1176H57.098C58.136 30.1176 58.9804 30.9621 58.9804 32ZM28.0257 2.5098C30.4476 2.5098 32.4179 4.48013 32.4179 6.90196C32.4179 9.3238 30.4476 11.2941 28.0257 11.2941C25.6039 11.2941 23.6336 9.3238 23.6336 6.90196C23.6336 4.48013 25.6039 2.5098 28.0257 2.5098ZM20.0784 20.4963C20.0784 17.2322 22.055 14.3339 25.0468 13.1272C26.9109 14.0227 29.1107 14.037 31.0045 13.1272C33.8856 14.2937 35.973 17.1249 35.973 20.4963V23.8431H31.5746C31.7139 23.4504 31.7904 23.0282 31.7904 22.5882C31.7904 20.5124 30.1016 18.8235 28.0257 18.8235H26.7708V17.5686C26.7708 16.8757 26.2089 16.3137 25.5159 16.3137C24.823 16.3137 24.261 16.8757 24.261 17.5686V20.0784C24.261 20.7714 24.823 21.3333 25.5159 21.3333H28.0257C28.7177 21.3333 29.2806 21.8963 29.2806 22.5882C29.2806 23.2802 28.7177 23.8431 28.0257 23.8431H20.0784V20.4963ZM18.8235 26.3529C19.7163 26.3529 40.9027 26.3529 42.6667 26.3529C43.3596 26.3529 43.9216 25.791 43.9216 25.098V19.0037C43.9216 17.6471 44.6524 16.3846 45.8289 15.7091L55.2678 10.2896C56.1709 9.77155 57.3207 10.0825 57.8379 10.985C58.3562 11.8881 58.0405 13.0392 57.1433 13.5551L48.3164 18.6224C47.9266 18.8461 47.6863 19.2614 47.6863 19.7107V28.4549C47.6863 31.4476 45.2515 33.8824 42.2588 33.8824C40.8924 33.8824 20.1961 33.8824 18.8235 33.8824C16.7477 33.8824 15.0588 32.1935 15.0588 30.1176C15.0588 28.0418 16.7477 26.3529 18.8235 26.3529ZM8.78431 26.3529C10.8602 26.3529 12.549 28.0418 12.549 30.1176C12.549 32.1935 10.8602 33.8824 8.78431 33.8824C6.70846 33.8824 5.01961 32.1935 5.01961 30.1176C5.01961 28.0418 6.70846 26.3529 8.78431 26.3529ZM11.2941 59.6078C11.2941 60.6458 10.4497 61.4902 9.41177 61.4902C8.37384 61.4902 7.52941 60.6458 7.52941 59.6078V47.6863H11.2941V59.6078ZM56.4706 59.6078C56.4706 60.6458 55.6262 61.4902 54.5882 61.4902C53.5503 61.4902 52.7059 60.6458 52.7059 59.6078V47.6863H56.4706V59.6078ZM61.4902 42.3529C61.4902 43.9098 60.2235 45.1765 58.6667 45.1765C57.0309 45.1765 7.68201 45.1765 5.33333 45.1765C3.7765 45.1765 2.5098 43.9098 2.5098 42.3529V39.2157C2.5098 37.6589 3.7765 36.3922 5.33333 36.3922C7.61801 36.3922 56.0513 36.3922 58.6667 36.3922C60.2235 36.3922 61.4902 37.6589 61.4902 39.2157V42.3529Z" fill="#897AE3"/>
</svg>
