<svg width="34" height="63" viewBox="0 0 34 63" fill="none" xmlns="http://www.w3.org/2000/svg">
<path d="M31.2242 57.1873C23.4667 55.7328 23.0788 51.5631 23.0788 51.3691C22.5939 45.551 24.3394 26.6419 24.6303 25.3813C25.0182 23.9267 25.7939 20.9207 23.3697 18.1085C22.497 17.1388 23.1758 12.7752 13.9636 0.363087C13.6727 -0.024792 13.0909 -0.121762 12.703 0.169147L0.387879 8.50854C1.44496e-07 8.79945 -0.0969697 9.2843 0.0969696 9.67218C2.90909 15.8782 11.2485 23.5388 13.8667 25.7691C9.50303 31.2964 12.897 40.7994 12.9939 41.1873C16.5818 49.6237 13.7697 55.151 13.6727 55.2479V55.3449C12.1212 59.3207 14.4485 61.2601 17.5515 60.6782C22.0121 59.3207 26.0848 62.0358 30.3515 62.0358C34.9091 62.0358 33.9394 57.6722 31.2242 57.1873ZM22.0121 19.3691C24.2424 21.8904 22.8848 24.7025 22.6909 25.7691C22.497 27.3207 22.1091 31.8782 21.7212 36.9207H19.4909C19.8788 35.2722 20.0727 32.751 20.0727 31.1025C20.0727 31.0055 20.0727 30.9085 20.0727 30.9085C21.4303 30.5207 22.2061 29.357 22.2061 27.9994C22.2061 26.6419 21.3333 25.2843 19.7818 24.9934C19.7818 24.8964 19.8788 24.7994 19.8788 24.7025C19.9758 23.2479 18.8121 20.4358 18.2303 19.0782C19.3939 18.3025 20.3636 17.7207 21.1394 17.2358C21.2364 18.0116 21.3333 18.5934 22.0121 19.3691ZM19.2 29.0661C18.2303 29.0661 18.1333 28.0964 18.1333 27.9025C18.1333 27.2237 18.5212 26.7388 19.2 26.7388C20.2667 26.7388 20.2667 27.7085 20.2667 27.9025C20.2667 28.4843 19.8788 29.0661 19.2 29.0661ZM8.72727 18.3025C6.20606 15.5873 3.58788 12.4843 2.13333 9.67218L13.0909 2.20551C14.1576 3.66006 16.6788 7.24793 18.7151 11.2237C16.7758 11.9994 12.5091 14.0358 8.72727 18.3025ZM12.2182 21.7934C11.5394 21.1146 10.8606 20.4358 10.0848 19.6601C13.6727 15.5873 17.8424 13.6479 19.4909 12.9691C19.8788 13.7449 20.1697 14.5207 20.4606 15.2964C18.8121 16.1691 14.7394 18.5934 12.2182 21.7934ZM15.8061 26.351C16 26.157 16.097 25.8661 16.097 25.6722C16.097 25.3813 16 25.1873 15.8061 24.9934C15.8061 24.9934 14.9333 24.2176 13.6727 23.054C14.5455 21.9873 15.6121 20.9207 16.6788 20.0479C17.3576 21.6964 18.0364 23.6358 18.0364 24.4116C18.0364 24.6055 18.1333 24.7994 18.2303 24.9934C16.9697 25.4782 16.3879 26.6419 16.3879 27.8055C16.3879 29.0661 17.0667 30.3267 18.4242 30.7146C18.4242 30.8116 18.4242 30.8116 18.4242 30.9085C18.3273 33.2358 18.0364 35.951 17.7455 36.8237H13.8667C13.2848 33.6237 13.0909 29.0661 15.8061 26.351ZM14.2545 38.7631H21.6242C21.5273 39.5388 21.5273 40.3146 21.4303 41.0904H14.9333C14.6424 40.3146 14.4485 39.5388 14.2545 38.7631ZM31.6121 59.9025C31.6121 59.9025 31.2242 60.1934 30.3515 60.1934C26.9576 60.1934 24.7273 58.5449 20.2667 58.5449C17.9394 58.5449 17.3576 59.0298 16.5818 59.0298C15.1273 59.0298 14.5455 58.4479 15.3212 56.2176C15.6121 55.5388 17.9394 50.5934 15.5152 43.0298H21.1394C20.9455 46.4237 20.8485 49.6237 21.0424 51.6601C21.0424 51.854 21.3333 57.4782 30.7394 59.2237C31.1273 59.3207 31.4182 59.6116 31.5151 59.9025C31.6121 59.9025 31.6121 59.9025 31.6121 59.9025Z" fill="#897AE3"/>
</svg>
