<svg width="32" height="32" viewBox="0 0 32 32" fill="none" xmlns="http://www.w3.org/2000/svg">
<path d="M16 30.3333C8.09329 30.3333 1.66663 23.9066 1.66663 16C1.66663 8.09329 8.09329 1.66663 16 1.66663C23.9066 1.66663 30.3333 8.09329 30.3333 16C30.3333 23.9066 23.9066 30.3333 16 30.3333ZM16 3.66663C9.19996 3.66663 3.66663 9.19996 3.66663 16C3.66663 22.8 9.19996 28.3333 16 28.3333C22.8 28.3333 28.3333 22.8 28.3333 16C28.3333 9.19996 22.8 3.66663 16 3.66663Z" fill="white"/>
<path d="M11.9999 29H10.6666C10.1199 29 9.66661 28.5467 9.66661 28C9.66661 27.4533 10.0933 27.0133 10.6399 27C8.54661 19.8533 8.54661 12.1467 10.6399 5C10.0933 4.98667 9.66661 4.54667 9.66661 4C9.66661 3.45333 10.1199 3 10.6666 3H11.9999C12.3199 3 12.6266 3.16 12.8133 3.41333C12.9999 3.68 13.0533 4.01333 12.9466 4.32C10.4399 11.8533 10.4399 20.1467 12.9466 27.6933C13.0533 28 12.9999 28.3333 12.8133 28.6C12.6266 28.84 12.3199 29 11.9999 29Z" fill="white"/>
<path d="M20.0001 29C19.8934 29 19.7867 28.9866 19.6801 28.9466C19.1601 28.7733 18.8667 28.2 19.0534 27.68C21.5601 20.1466 21.5601 11.8533 19.0534 4.30662C18.8801 3.78662 19.1601 3.21329 19.6801 3.03995C20.2134 2.86662 20.7734 3.14662 20.9467 3.66662C23.6001 11.6133 23.6001 20.36 20.9467 28.2933C20.8134 28.7333 20.4134 29 20.0001 29Z" fill="white"/>
<path d="M16 22.9334C12.28 22.9334 8.57333 22.4134 5 21.3601C4.98667 21.8934 4.54667 22.3334 4 22.3334C3.45333 22.3334 3 21.8801 3 21.3334V20.0001C3 19.6801 3.16 19.3734 3.41333 19.1867C3.68 19.0001 4.01333 18.9467 4.32 19.0534C11.8533 21.5601 20.16 21.5601 27.6933 19.0534C28 18.9467 28.3333 19.0001 28.6 19.1867C28.8667 19.3734 29.0133 19.6801 29.0133 20.0001V21.3334C29.0133 21.8801 28.56 22.3334 28.0133 22.3334C27.4667 22.3334 27.0267 21.9067 27.0133 21.3601C23.4267 22.4134 19.72 22.9334 16 22.9334Z" fill="white"/>
<path d="M28 13.0001C27.8934 13.0001 27.7867 12.9868 27.68 12.9468C20.1467 10.4401 11.84 10.4401 4.3067 12.9468C3.77337 13.1201 3.21337 12.8401 3.04004 12.3201C2.88004 11.7868 3.16004 11.2268 3.68004 11.0535C11.6267 8.40014 20.3734 8.40014 28.3067 11.0535C28.8267 11.2268 29.12 11.8001 28.9334 12.3201C28.8134 12.7335 28.4134 13.0001 28 13.0001Z" fill="white"/>
</svg>
