<svg width="32" height="32" viewBox="0 0 32 32" fill="none" xmlns="http://www.w3.org/2000/svg">
<path d="M16 18.8931C13.16 18.8931 10.84 16.5864 10.84 13.7331C10.84 10.8798 13.16 8.58643 16 8.58643C18.84 8.58643 21.16 10.8931 21.16 13.7464C21.16 16.5998 18.84 18.8931 16 18.8931ZM16 10.5864C14.2666 10.5864 12.84 11.9998 12.84 13.7464C12.84 15.4931 14.2533 16.9064 16 16.9064C17.7466 16.9064 19.16 15.4931 19.16 13.7464C19.16 11.9998 17.7333 10.5864 16 10.5864Z" fill="white"/>
<path d="M16.0001 30.3465C14.0268 30.3465 12.0401 29.5998 10.4934 28.1198C6.56011 24.3332 2.21345 18.2932 3.85345 11.1065C5.33345 4.5865 11.0268 1.6665 16.0001 1.6665C16.0001 1.6665 16.0001 1.6665 16.0134 1.6665C20.9868 1.6665 26.6801 4.5865 28.1601 11.1198C29.7868 18.3065 25.4401 24.3332 21.5068 28.1198C19.9601 29.5998 17.9734 30.3465 16.0001 30.3465ZM16.0001 3.6665C12.1201 3.6665 7.13345 5.73317 5.81345 11.5465C4.37345 17.8265 8.32011 23.2398 11.8934 26.6665C14.2001 28.8932 17.8134 28.8932 20.1201 26.6665C23.6801 23.2398 27.6268 17.8265 26.2134 11.5465C24.8801 5.73317 19.8801 3.6665 16.0001 3.6665Z" fill="white"/>
</svg>
