<svg width="25" height="24" viewBox="0 0 25 24" fill="none" xmlns="http://www.w3.org/2000/svg">
<path d="M12.032 1.62549C6.33777 1.62549 1.7207 5.9425 1.7207 11.2667C1.7207 15.2135 4.2617 18.6052 7.89368 20.0987C7.86606 19.4272 7.88907 18.6181 8.0732 17.8864C8.27114 17.103 9.39894 12.6311 9.39894 12.6311C9.39894 12.6311 9.06751 12.0156 9.06751 11.1074C9.06751 9.67846 9.95133 8.61104 11.0561 8.61104C11.9952 8.61104 12.4463 9.26957 12.4463 10.0572C12.4463 10.9396 11.8433 12.2566 11.5349 13.479C11.2771 14.5034 12.0826 15.334 13.1644 15.334C15.1162 15.334 16.4327 12.9883 16.4327 10.2079C16.4327 8.09455 14.909 6.51494 12.1425 6.51494C9.01687 6.51494 7.06509 8.69712 7.06509 11.1332C7.06509 11.9725 7.33208 12.5665 7.74637 13.0227C7.93511 13.2336 7.96273 13.3197 7.89368 13.5608C7.84304 13.7372 7.73256 14.1633 7.68193 14.3355C7.61288 14.5808 7.40113 14.6669 7.16636 14.5765C5.72554 14.0256 5.05346 12.5536 5.05346 10.8922C5.05346 8.15481 7.52541 4.87078 12.4233 4.87078C16.3591 4.87078 18.9507 7.53502 18.9507 10.3929C18.9507 14.1762 16.6997 16.9997 13.3854 16.9997C12.2714 16.9997 11.2264 16.4359 10.8674 15.7989C10.8674 15.7989 10.269 18.0198 10.1401 18.4502C9.92371 19.1948 9.49561 19.9351 9.10433 20.5162C10.0535 20.778 11.0378 20.9113 12.0274 20.9122C17.7216 20.9122 22.3387 16.5951 22.3387 11.271C22.3387 5.9468 17.7262 1.62549 12.032 1.62549Z" fill="white"/>
</svg>
