<svg width="48" height="48" viewBox="0 0 48 48" fill="none" xmlns="http://www.w3.org/2000/svg">
<path fill-rule="evenodd" clip-rule="evenodd" d="M16.288 47.9932C14.5599 47.9932 12.4337 47.9392 11.7249 46.758C11.3671 46.164 11.4211 45.4147 11.8801 44.5237C12.3392 43.6259 13.5542 42.0599 16.4837 41.6144C18.9408 41.2431 22.1876 38.5903 24.4758 36.9231C24.5703 36.8488 24.6851 36.8151 24.8066 36.8151H32.2925C32.5422 36.8151 32.765 36.9838 32.8325 37.2268L33.8652 41.0744C34.2972 42.9307 34.0407 45.3607 32.6367 46.5622C31.8335 47.2507 30.7737 47.3722 29.6464 46.9132C27.5674 46.0492 25.6571 46.272 24.9349 46.4137C21.5935 47.0415 20.3245 47.9932 16.288 47.9932ZM16.6525 42.7282C14.2157 43.0994 13.2437 44.3347 12.8792 45.0367C12.6969 45.3944 12.5147 45.8872 12.6902 46.1775C13.0749 46.8187 15.0257 46.8525 15.8627 46.866C20.0343 46.9402 21.229 45.9682 24.7256 45.3067C25.7449 45.1109 27.8036 44.9287 30.0784 45.8737C30.8209 46.1775 31.4217 46.1235 31.9077 45.705C32.7987 44.9422 33.1835 43.0387 32.7785 41.3579L31.8605 37.9356H24.9956C24.7323 38.1313 24.4556 38.3338 24.1721 38.5498C22.0121 40.1564 19.069 42.3637 16.6525 42.7282Z" fill="white"/>
<path fill-rule="evenodd" clip-rule="evenodd" d="M30.0447 37.9356H26.6494C26.3389 37.9356 26.0891 37.6858 26.0891 37.3753V31.5972C26.0891 31.2867 26.3389 31.037 26.6494 31.037C26.9599 31.037 27.2164 31.2867 27.2164 31.5972V36.8151H29.4844V31.739C29.4844 31.4285 29.7342 31.172 30.0447 31.172C30.3552 31.172 30.6117 31.4285 30.6117 31.739V37.3753C30.6117 37.6858 30.3552 37.9356 30.0447 37.9356Z" fill="white"/>
<path fill-rule="evenodd" clip-rule="evenodd" d="M29.3495 32.4072H27.6687C26.1769 32.4072 25.0024 31.2665 24.7459 29.5654L22.8019 16.558C22.5251 14.7287 24.1249 13.8242 25.8124 14.7692L27.1827 15.5387C27.4527 15.6872 27.5472 16.0315 27.3919 16.3015C27.2434 16.5715 26.8992 16.6727 26.6292 16.5175L25.2589 15.748C24.8067 15.4915 24.3612 15.4375 24.1114 15.613C23.8616 15.7817 23.8819 16.1732 23.9156 16.396L25.8597 29.3967C26.0014 30.3417 26.6157 31.2867 27.6687 31.2867H29.3495C30.4227 31.2867 31.037 30.3147 31.1585 29.4102L32.3735 20.0275C32.414 19.7575 32.1913 19.5955 31.5028 19.2445C31.01 18.9948 30.5105 18.6978 30.0245 18.4278C29.7545 18.2725 29.66 17.935 29.8085 17.665C29.9637 17.3883 30.308 17.2938 30.578 17.449C31.0438 17.7123 31.5365 17.9958 32.0158 18.2455C32.6975 18.5965 33.6358 19.0758 33.494 20.176L32.2723 29.5587C32.0495 31.2327 30.848 32.4072 29.3495 32.4072Z" fill="white"/>
<path fill-rule="evenodd" clip-rule="evenodd" d="M28.3908 24.7729C26.7911 24.7729 25.4883 23.4701 25.4883 21.8703C25.4883 20.2773 26.7911 18.9745 28.3908 18.9745C29.9906 18.9745 31.2934 20.2773 31.2934 21.8703C31.2934 23.4701 29.9906 24.7729 28.3908 24.7729ZM28.3908 20.0951C27.4121 20.0951 26.6155 20.8916 26.6155 21.8703C26.6155 22.8491 27.4121 23.6456 28.3908 23.6456C29.3696 23.6456 30.1661 22.8491 30.1661 21.8703C30.1661 20.8916 29.3696 20.0951 28.3908 20.0951Z" fill="white"/>
<path fill-rule="evenodd" clip-rule="evenodd" d="M30.3013 21.0873C30.119 21.0873 29.9503 20.9996 29.8423 20.8511C29.2415 20.0006 28.0535 19.8453 27.2637 20.5001C26.8992 20.8038 26.3457 20.5406 26.3457 20.0681V9.82814C26.3457 9.51764 26.5955 9.26788 26.906 9.26788H30.3013C30.6118 9.26788 30.8615 9.51764 30.8615 9.82814V20.5271C30.8615 20.8376 30.6118 21.0873 30.3013 21.0873ZM28.391 18.9745C28.8635 18.9745 29.3292 19.0893 29.741 19.3053V10.3952H27.4662V19.123C27.7632 19.0285 28.0737 18.9745 28.391 18.9745Z" fill="white"/>
<path fill-rule="evenodd" clip-rule="evenodd" d="M32.7313 10.3952H24.476C23.5714 10.3952 22.8762 9.74043 22.6197 8.64691L20.7161 0.695286C20.6284 0.34428 20.8984 0.0067749 21.2562 0.0067749H35.9444C36.3089 0.0067749 36.5789 0.34428 36.4911 0.695286L34.5876 8.64691C34.3244 9.74043 33.6291 10.3952 32.7313 10.3952ZM21.9717 1.12729L23.7132 8.39041C23.7874 8.71441 23.9967 9.26792 24.476 9.26792H32.7313C33.2106 9.26792 33.4131 8.71441 33.4941 8.39041L35.2356 1.12729H21.9717Z" fill="white"/>
</svg>
