<svg width="32" height="32" viewBox="0 0 32 32" fill="none" xmlns="http://www.w3.org/2000/svg">
<path d="M22.6666 28.3332H9.33329C4.46663 28.3332 1.66663 25.5332 1.66663 20.6665V11.3332C1.66663 6.4665 4.46663 3.6665 9.33329 3.6665H22.6666C27.5333 3.6665 30.3333 6.4665 30.3333 11.3332V20.6665C30.3333 25.5332 27.5333 28.3332 22.6666 28.3332ZM9.33329 5.6665C5.51996 5.6665 3.66663 7.51984 3.66663 11.3332V20.6665C3.66663 24.4798 5.51996 26.3332 9.33329 26.3332H22.6666C26.48 26.3332 28.3333 24.4798 28.3333 20.6665V11.3332C28.3333 7.51984 26.48 5.6665 22.6666 5.6665H9.33329Z" fill="white"/>
<path d="M15.9997 17.16C14.8797 17.16 13.7464 16.8133 12.8797 16.1066L8.70641 12.7733C8.27974 12.4266 8.19975 11.8 8.54642 11.3733C8.89308 10.9466 9.51975 10.8666 9.94642 11.2133L14.1197 14.5466C15.1331 15.36 16.8531 15.36 17.8664 14.5466L22.0397 11.2133C22.4664 10.8666 23.1064 10.9333 23.4397 11.3733C23.7864 11.8 23.7198 12.44 23.2798 12.7733L19.1064 16.1066C18.2531 16.8133 17.1197 17.16 15.9997 17.16Z" fill="white"/>
</svg>
