<svg width="25" height="24" viewBox="0 0 25 24" fill="none" xmlns="http://www.w3.org/2000/svg">
<path d="M17.2265 3.4157C18.3543 3.41907 19.435 3.8686 20.2325 4.66612C21.0301 5.46363 21.4796 6.54433 21.483 7.67218V16.1842C21.4796 17.3121 21.0301 18.3928 20.2325 19.1903C19.435 19.9878 18.3543 20.4374 17.2265 20.4407H8.71442C7.58657 20.4374 6.50587 19.9878 5.70835 19.1903C4.91083 18.3928 4.4613 17.3121 4.45794 16.1842V7.67218C4.4613 6.54433 4.91083 5.46363 5.70835 4.66612C6.50587 3.8686 7.58657 3.41907 8.71442 3.4157H17.2265ZM17.2265 1.71338H8.71442C5.43701 1.71338 2.75562 4.39477 2.75562 7.67218V16.1842C2.75562 19.4616 5.43701 22.143 8.71442 22.143H17.2265C20.5039 22.143 23.1853 19.4616 23.1853 16.1842V7.67218C23.1853 4.39477 20.5039 1.71338 17.2265 1.71338Z" fill="white"/>
<path d="M18.5008 7.67431C18.2482 7.67431 18.0014 7.59943 17.7914 7.45913C17.5814 7.31882 17.4178 7.1194 17.3211 6.88609C17.2245 6.65278 17.1992 6.39604 17.2485 6.14836C17.2977 5.90067 17.4193 5.67316 17.5979 5.49459C17.7765 5.31602 18.004 5.19441 18.2517 5.14514C18.4994 5.09587 18.7561 5.12116 18.9894 5.2178C19.2227 5.31444 19.4221 5.4781 19.5624 5.68808C19.7027 5.89806 19.7776 6.14492 19.7776 6.39746C19.778 6.56524 19.7452 6.73144 19.6812 6.88652C19.6171 7.04159 19.5231 7.1825 19.4045 7.30114C19.2858 7.41978 19.1449 7.51381 18.9898 7.57785C18.8348 7.64189 18.6686 7.67467 18.5008 7.67431ZM12.9679 8.52525C13.6414 8.52525 14.2997 8.72495 14.8597 9.09911C15.4196 9.47326 15.8561 10.0051 16.1138 10.6273C16.3715 11.2495 16.4389 11.9341 16.3076 12.5946C16.1762 13.2552 15.8519 13.8619 15.3757 14.3381C14.8994 14.8143 14.2927 15.1386 13.6322 15.27C12.9717 15.4014 12.287 15.334 11.6648 15.0762C11.0426 14.8185 10.5108 14.3821 10.1367 13.8221C9.7625 13.2621 9.5628 12.6038 9.5628 11.9303C9.56376 11.0275 9.92282 10.162 10.5612 9.52364C11.1996 8.88527 12.0651 8.52621 12.9679 8.52525ZM12.9679 6.82293C11.9577 6.82293 10.9703 7.12247 10.1304 7.68368C9.29045 8.24489 8.63582 9.04256 8.24925 9.97582C7.86269 10.9091 7.76154 11.936 7.95861 12.9267C8.15568 13.9175 8.64212 14.8275 9.3564 15.5418C10.0707 16.2561 10.9807 16.7425 11.9715 16.9396C12.9622 17.1367 13.9892 17.0355 14.9224 16.649C15.8557 16.2624 16.6533 15.6078 17.2146 14.7679C17.7758 13.928 18.0753 12.9405 18.0753 11.9303C18.0753 10.5758 17.5372 9.27668 16.5794 8.31885C15.6216 7.36103 14.3225 6.82293 12.9679 6.82293Z" fill="white"/>
</svg>
