<svg width="24" height="24" viewBox="0 0 24 24" fill="none" xmlns="http://www.w3.org/2000/svg">
<path d="M21.9799 11.41C21.6399 5.60995 16.3699 1.13996 10.2999 2.13996C6.11992 2.82996 2.76993 6.21994 2.11993 10.3999C1.73993 12.8199 2.23995 15.1099 3.32995 16.9999L2.43993 20.3099C2.23993 21.0599 2.92991 21.7399 3.66991 21.5299L6.92992 20.63C8.40992 21.5 10.1399 21.9999 11.9899 21.9999C17.6299 21.9999 22.3099 17.03 21.9799 11.41ZM16.8799 15.7199C16.7899 15.8999 16.6799 16.07 16.5399 16.23C16.2899 16.5 16.0199 16.7 15.7199 16.82C15.4199 16.95 15.0899 17.01 14.7399 17.01C14.2299 17.01 13.6799 16.89 13.1099 16.64C12.5299 16.39 11.9599 16.0599 11.3899 15.6499C10.8099 15.2299 10.2699 14.7599 9.74993 14.2499C9.22993 13.7299 8.76991 13.1799 8.34991 12.6099C7.93991 12.0399 7.60993 11.4699 7.36993 10.8999C7.12993 10.3299 7.00994 9.77996 7.00994 9.25996C7.00994 8.91996 7.06993 8.58996 7.18993 8.28996C7.30993 7.97996 7.49995 7.69996 7.76995 7.44996C8.08995 7.12996 8.43993 6.97996 8.80993 6.97996C8.94993 6.97996 9.0899 7.00995 9.2199 7.06995C9.3499 7.12995 9.46993 7.21995 9.55993 7.34995L10.7199 8.98994C10.8099 9.11994 10.8799 9.22994 10.9199 9.33994C10.9699 9.44994 10.9899 9.54994 10.9899 9.64994C10.9899 9.76994 10.9499 9.88996 10.8799 10.01C10.8099 10.13 10.7199 10.2499 10.5999 10.3699L10.2199 10.7699C10.1599 10.8299 10.1399 10.8899 10.1399 10.9699C10.1399 11.0099 10.1499 11.0499 10.1599 11.0899C10.1799 11.1299 10.1899 11.16 10.1999 11.1899C10.2899 11.36 10.4499 11.5699 10.6699 11.8299C10.8999 12.0899 11.14 12.3599 11.4 12.6199C11.67 12.8899 11.9299 13.1299 12.1999 13.3599C12.4599 13.5799 12.6799 13.73 12.8499 13.82C12.8799 13.83 12.9099 13.8499 12.9399 13.8599C12.9799 13.8799 13.0199 13.88 13.0699 13.88C13.1599 13.88 13.22 13.85 13.28 13.79L13.6599 13.41C13.7899 13.28 13.91 13.19 14.02 13.13C14.14 13.06 14.2499 13.0199 14.3799 13.0199C14.4799 13.0199 14.5799 13.0399 14.6899 13.0899C14.7999 13.1399 14.9199 13.2 15.0399 13.29L16.6999 14.4699C16.8299 14.5599 16.9199 14.67 16.9799 14.79C17.0299 14.92 17.0599 15.0399 17.0599 15.1799C16.9999 15.3499 16.9599 15.5399 16.8799 15.7199Z" fill="white"/>
</svg>
